<?xml version="1.0" encoding="UTF-8"?>
<svg id="Layer_18" data-name="Layer 18" xmlns="http://www.w3.org/2000/svg" viewBox="0 0 500 500">
  <defs>
    <style>
      .cls-1 {
        fill: #fff;
      }

      .cls-2 {
        fill: none;
        stroke: #fff;
        stroke-linecap: round;
        stroke-miterlimit: 10;
        stroke-width: 45px;
      }
    </style>
  </defs>
  <g>
    <path class="cls-1" d="M182.6,227.66c12.03,0,21.81,9.79,21.81,21.81s-9.79,21.81-21.81,21.81-21.81-9.79-21.81-21.81,9.79-21.81,21.81-21.81M182.6,195.66c-29.72,0-53.81,24.09-53.81,53.81s24.09,53.81,53.81,53.81,53.81-24.09,53.81-53.81-24.09-53.81-53.81-53.81h0Z"/>
    <line class="cls-2" x1="434.44" y1="249.47" x2="229.97" y2="249.47"/>
    <line class="cls-2" x1="130.15" y1="249.47" x2="66.87" y2="249.47"/>
  </g>
  <g>
    <path class="cls-1" d="M318.71,94.66c12.03,0,21.81,9.79,21.81,21.81s-9.79,21.81-21.81,21.81-21.81-9.79-21.81-21.81,9.79-21.81,21.81-21.81M318.71,62.66c-29.72,0-53.81,24.09-53.81,53.81s24.09,53.81,53.81,53.81,53.81-24.09,53.81-53.81-24.09-53.81-53.81-53.81h0Z"/>
    <line class="cls-2" x1="66.87" y1="116.48" x2="271.34" y2="116.48"/>
    <line class="cls-2" x1="371.16" y1="116.48" x2="434.44" y2="116.48"/>
  </g>
  <g>
    <path class="cls-1" d="M318.71,360.66c12.03,0,21.81,9.79,21.81,21.81s-9.79,21.81-21.81,21.81-21.81-9.79-21.81-21.81,9.79-21.81,21.81-21.81M318.71,328.66c-29.72,0-53.81,24.09-53.81,53.81s24.09,53.81,53.81,53.81,53.81-24.09,53.81-53.81-24.09-53.81-53.81-53.81h0Z"/>
    <line class="cls-2" x1="66.87" y1="382.47" x2="271.34" y2="382.47"/>
    <line class="cls-2" x1="371.16" y1="382.47" x2="434.44" y2="382.47"/>
  </g>
</svg>